<svg
  width="512"
  height="512"
  viewBox="0 0 512 512"
  fill="none"
  xmlns="http://www.w3.org/2000/svg"
>
  <path
    fill="currentColor"
    d="M164.138,138.729L164.138,379.681L164.191,379.681C164.188,380.301 164.187,380.922 164.187,381.543C164.187,474.106 199.451,549.255 242.886,549.255C286.322,549.255 321.586,474.106 321.586,381.543C321.586,380.922 321.585,380.301 321.582,379.681L321.635,379.681L321.635,333.742L321.635,333.645L321.635,138.729L321.582,138.729C321.585,138.109 321.586,137.488 321.586,136.867C321.586,44.304 286.322,-30.844 242.886,-30.844C199.451,-30.844 164.187,44.304 164.187,136.867C164.187,137.488 164.188,138.109 164.191,138.729L164.138,138.729ZM296.632,253.541L296.583,380.115C296.585,380.59 296.586,381.067 296.586,381.543C296.586,447.02 273.612,503.219 242.886,503.219C212.161,503.219 189.187,447.02 189.187,381.543C189.187,381.067 189.188,380.59 189.19,380.115L189.14,253.541C206.285,256.501 224.302,258.079 242.886,258.079C261.471,258.079 279.488,256.501 296.632,253.541Z"
    transform="matrix(1.33742,-0.766624,-0.441996,-0.771086,45.7267,642.072)"
  />
</svg>