<svg
  width="512"
  height="512"
  viewBox="0 0 512 512"
  fill="none"
  xmlns="http://www.w3.org/2000/svg"
>
  <path
    fill="currentColor"
    fillRule="evenodd"
    clipRule="evenodd"
    d="M665.87 81.033V171.209C665.87 176.267 661.77 180.366 656.713 180.366H485.516V351.563C485.516 356.62 481.417 360.72 476.359 360.72H386.183C381.125 360.72 377.026 356.62 377.026 351.563V180.366H205.829C200.772 180.366 196.672 176.267 196.672 171.209V81.033C196.672 75.975 200.772 71.876 205.829 71.876H377.026V-99.321C377.026 -104.378 381.125 -108.478 386.183 -108.478H476.359C481.417 -108.478 485.516 -104.378 485.516 -99.321V71.876H656.713C661.77 71.876 665.87 75.975 665.87 81.033Z"
    transform="translate(-175.271 129.879)"
  />
</svg>