<svg
  width="512"
  height="512"
  viewBox="0 0 512 512"
  fill="none"
  xmlns="http://www.w3.org/2000/svg"
>
  <path
    fill="currentColor"
    fill-rule="evenodd"
    clip-rule="evenodd"
    d="M288.366 92.602L288.671 147.492C297.558 149.989 306.116 153.534 314.165 158.052L353.195 119.455C355.57 117.106 359.305 116.845 361.984 118.84C375.64 129.01 387.743 141.113 397.913 154.769C399.908 157.448 399.647 161.183 397.298 163.558L358.701 202.587C363.219 210.637 366.764 219.195 369.261 228.081L424.151 228.387C427.491 228.406 430.317 230.862 430.8 234.167C433.266 251.014 433.266 268.131 430.8 284.978C430.317 288.284 427.491 290.74 424.151 290.758L369.261 291.064C366.764 299.95 363.219 308.509 358.701 316.558L397.298 355.587C399.647 357.962 399.908 361.697 397.913 364.376C387.743 378.032 375.64 390.135 361.984 400.305C359.305 402.3 355.57 402.039 353.195 399.69L314.166 361.093C306.116 365.611 297.558 369.156 288.671 371.653L288.366 426.543C288.347 429.883 285.891 432.709 282.586 433.193C265.739 435.658 248.622 435.658 231.775 433.193C228.469 432.709 226.013 429.883 225.995 426.543L225.689 371.653C216.803 369.156 208.244 365.611 200.195 361.093L161.166 399.69C158.791 402.039 155.056 402.3 152.377 400.305C138.721 390.135 126.618 378.032 116.448 364.376C114.453 361.697 114.714 357.962 117.063 355.587L155.66 316.558C151.142 308.509 147.597 299.95 145.1 291.064L90.21 290.758C86.87 290.74 84.044 288.284 83.56 284.978C81.095 268.131 81.095 251.014 83.56 234.167C84.044 230.862 86.87 228.406 90.21 228.387L145.1 228.082C147.597 219.195 151.142 210.637 155.66 202.587L117.063 163.558C114.714 161.183 114.453 157.448 116.448 154.769C126.618 141.113 138.721 129.01 152.377 118.84C155.056 116.845 158.791 117.106 161.166 119.455L200.195 158.052C208.244 153.534 216.803 149.989 225.689 147.492L225.995 92.602C226.013 89.262 228.469 86.436 231.775 85.953C248.622 83.487 265.739 83.487 282.586 85.953C285.891 86.436 288.347 89.262 288.366 92.602ZM257.18 198.847C223.665 198.847 196.455 226.057 196.455 259.573C196.455 293.088 223.665 320.298 257.18 320.298C290.696 320.298 317.906 293.088 317.906 259.573C317.906 226.057 290.696 198.847 257.18 198.847Z"
    transform="matrix(1.35489 0 0 1.35489 -92.4518 -95.693)"
  />
</svg>