<?xml version="1.0" encoding="UTF-8" standalone="no"?>
<!DOCTYPE svg PUBLIC "-//W3C//DTD SVG 1.1//EN" "http://www.w3.org/Graphics/SVG/1.1/DTD/svg11.dtd">
<svg width="2000px" height="800px" version="1.1" xmlns="http://www.w3.org/2000/svg" xmlns:xlink="http://www.w3.org/1999/xlink" xml:space="preserve" xmlns:serif="http://www.serif.com/" style="fill-rule:evenodd;clip-rule:evenodd;stroke-linejoin:round;stroke-miterlimit:2;">
    <g transform="matrix(40.546,0,0,40.546,-12710.9,-14988.2)">
        <path d="M322.423,383.85L318.103,383.85C317.879,383.85 317.69,383.661 317.69,383.437L317.69,375.613C317.69,375.389 317.879,375.199 318.103,375.199C318.343,375.199 318.529,375.39 318.529,375.613L318.529,383.011L322.423,383.011C322.661,383.011 322.849,383.199 322.849,383.437C322.849,383.659 322.663,383.85 322.423,383.85ZM323.901,381.633L323.901,378.841C323.901,378.624 324.081,378.464 324.299,378.464C324.518,378.464 324.698,378.624 324.698,378.841L324.698,381.633C324.698,382.445 325.404,383.087 326.274,383.097C327.155,383.086 327.873,382.445 327.873,381.633L327.873,378.841C327.873,378.624 328.069,378.464 328.271,378.464C328.504,378.464 328.68,378.626 328.68,378.841L328.68,381.633C328.68,382.85 327.618,383.851 326.274,383.851C324.953,383.851 323.901,382.85 323.901,381.633ZM339.129,383.437L339.129,378.133C339.129,377.891 339.319,377.719 339.543,377.719C339.783,377.719 339.968,377.893 339.968,378.133L339.968,383.437C339.968,383.66 339.783,383.851 339.543,383.851C339.319,383.851 339.129,383.661 339.129,383.437ZM347.117,383.543C347.117,383.553 347.115,383.563 347.111,383.572C347.078,383.674 346.997,383.746 346.913,383.796C346.91,383.798 346.907,383.8 346.904,383.801C346.838,383.834 346.771,383.85 346.704,383.85L346.644,383.85L346.614,383.847L346.581,383.836L346.573,383.83L346.546,383.821C346.53,383.814 346.514,383.801 346.498,383.792L346.481,383.786L346.424,383.742L346.388,383.706L346.379,383.695C346.356,383.678 346.338,383.653 346.331,383.624C346.317,383.607 346.308,383.587 346.305,383.566C346.296,383.548 346.291,383.529 346.291,383.509L346.291,380.245C346.291,379.318 345.543,378.546 344.604,378.546C343.666,378.546 342.918,379.318 342.918,380.245L342.918,383.449C342.918,383.587 342.851,383.707 342.734,383.779C342.718,383.791 342.697,383.806 342.675,383.817L342.631,383.833L342.631,383.833L342.61,383.842L342.54,383.85L342.468,383.85C342.464,383.85 342.459,383.85 342.454,383.85C342.301,383.832 342.16,383.702 342.109,383.548C342.105,383.536 342.103,383.522 342.103,383.509L342.103,378.133C342.103,377.906 342.295,377.731 342.504,377.731C342.747,377.731 342.918,377.907 342.918,378.133L342.918,378.384C343.36,377.977 343.95,377.731 344.604,377.731C345.488,377.731 346.255,378.181 346.706,378.864C347.168,378.181 347.944,377.731 348.816,377.731C350.206,377.731 351.33,378.855 351.33,380.245L351.33,383.449C351.33,383.657 351.159,383.85 350.916,383.85C350.689,383.85 350.515,383.658 350.515,383.449L350.515,380.246C350.492,379.319 349.755,378.546 348.816,378.546C347.889,378.546 347.13,379.318 347.13,380.245L347.13,383.485L347.127,383.515L347.117,383.543ZM346.575,383.831C346.601,383.842 346.62,383.838 346.62,383.838L346.585,383.834L346.575,383.831ZM346.382,383.697C346.401,383.713 346.422,383.718 346.452,383.718C346.426,383.718 346.402,383.71 346.382,383.697ZM346.572,383.83L346.533,383.803C346.547,383.816 346.56,383.824 346.572,383.83ZM346.377,383.692L346.359,383.669C346.365,383.678 346.371,383.686 346.377,383.692ZM346.44,383.694C346.471,383.694 346.501,383.683 346.523,383.663C346.519,383.66 346.516,383.656 346.512,383.653L346.497,383.637L346.44,383.694ZM346.44,383.694L346.315,383.569C346.315,383.57 346.315,383.572 346.315,383.575C346.315,383.576 346.315,383.579 346.315,383.583C346.316,383.592 346.319,383.607 346.33,383.623C346.328,383.615 346.327,383.606 346.327,383.597L346.327,383.596L346.327,383.597C346.327,383.607 346.33,383.614 346.332,383.62C346.332,383.622 346.334,383.626 346.336,383.63C346.337,383.631 346.338,383.632 346.34,383.634C346.338,383.632 346.337,383.631 346.336,383.63C346.343,383.642 346.353,383.658 346.355,383.661C346.378,383.682 346.408,383.694 346.44,383.694ZM347.083,383.596L346.992,383.634C347.028,383.634 347.06,383.619 347.083,383.596ZM347.083,383.596C347.092,383.586 347.1,383.574 347.106,383.562L347.083,383.596ZM352.711,380.785C352.711,379.067 354.061,377.626 355.714,377.626C357.38,377.626 358.717,379.067 358.717,380.785C358.717,382.503 357.38,383.943 355.714,383.943C354.061,383.943 352.711,382.503 352.711,380.785ZM353.725,380.785C353.725,381.968 354.629,382.93 355.714,382.93C356.799,382.93 357.703,381.968 357.703,380.785C357.703,379.601 356.8,378.627 355.714,378.627C354.628,378.627 353.725,379.601 353.725,380.785ZM336.503,383.705C336.492,383.696 336.461,383.669 336.442,383.641L336.443,383.642L331.63,376.95L331.63,383.437C331.63,383.661 331.441,383.85 331.217,383.85C330.993,383.85 330.803,383.661 330.803,383.437L330.803,375.75C330.761,375.586 330.813,375.424 330.96,375.31C330.963,375.307 330.966,375.305 330.969,375.303C331.157,375.184 331.428,375.224 331.548,375.41L336.407,382.148L336.407,375.697C336.407,375.473 336.597,375.283 336.821,375.283C337.06,375.283 337.246,375.474 337.246,375.697L337.246,383.437C337.246,383.659 337.06,383.85 336.821,383.85C336.688,383.85 336.587,383.802 336.503,383.705Z" style="fill:rgb(28,42,57);"/>
    </g>
    <g transform="matrix(0.963417,0,0,0.963417,-33.493,90.8948)">
        <circle cx="1131.33" cy="204.036" r="25.196" style="fill:rgb(46,196,182);"/>
    </g>
</svg>
